<mxfile host="app.diagrams.net" modified="2023-07-03T05:08:38.309Z" agent="Mozilla/5.0 (Windows NT 10.0; Win64; x64) AppleWebKit/537.36 (KHTML, like Gecko) Chrome/112.0.0.0 YaBrowser/23.5.3.904 Yowser/2.5 Safari/537.36" etag="zmGKVmzcAAeoxcG5WaAf" version="21.5.2" type="device">
  <diagram name="Страница 1" id="jpkq7y4-PGBRzC_0zSIr">
    <mxGraphModel dx="1386" dy="767" grid="1" gridSize="10" guides="1" tooltips="1" connect="1" arrows="1" fold="1" page="1" pageScale="1" pageWidth="827" pageHeight="1169" math="0" shadow="0">
      <root>
        <mxCell id="0" />
        <mxCell id="1" parent="0" />
        <mxCell id="mAXIBb8lZ9mhZBGV6BJS-7" style="edgeStyle=orthogonalEdgeStyle;rounded=0;orthogonalLoop=1;jettySize=auto;html=1;entryX=0;entryY=0.5;entryDx=0;entryDy=0;" edge="1" parent="1" source="mAXIBb8lZ9mhZBGV6BJS-2" target="mAXIBb8lZ9mhZBGV6BJS-3">
          <mxGeometry relative="1" as="geometry" />
        </mxCell>
        <mxCell id="mAXIBb8lZ9mhZBGV6BJS-8" style="edgeStyle=orthogonalEdgeStyle;rounded=0;orthogonalLoop=1;jettySize=auto;html=1;exitX=0.5;exitY=1;exitDx=0;exitDy=0;entryX=0.5;entryY=0;entryDx=0;entryDy=0;" edge="1" parent="1" source="mAXIBb8lZ9mhZBGV6BJS-2" target="mAXIBb8lZ9mhZBGV6BJS-4">
          <mxGeometry relative="1" as="geometry" />
        </mxCell>
        <mxCell id="mAXIBb8lZ9mhZBGV6BJS-2" value="Проверяем в графе попадает ли он в одну и ту же ячейку дважды" style="rounded=0;whiteSpace=wrap;html=1;" vertex="1" parent="1">
          <mxGeometry x="90" y="170" width="120" height="60" as="geometry" />
        </mxCell>
        <mxCell id="mAXIBb8lZ9mhZBGV6BJS-3" value="продолжаем работу" style="rounded=0;whiteSpace=wrap;html=1;" vertex="1" parent="1">
          <mxGeometry x="354" y="170" width="120" height="60" as="geometry" />
        </mxCell>
        <mxCell id="mAXIBb8lZ9mhZBGV6BJS-4" value="циклическая зависимость&lt;br&gt;" style="rounded=0;whiteSpace=wrap;html=1;" vertex="1" parent="1">
          <mxGeometry x="90" y="320" width="120" height="60" as="geometry" />
        </mxCell>
        <mxCell id="mAXIBb8lZ9mhZBGV6BJS-6" style="edgeStyle=orthogonalEdgeStyle;rounded=0;orthogonalLoop=1;jettySize=auto;html=1;exitX=0.5;exitY=1;exitDx=0;exitDy=0;" edge="1" parent="1" source="mAXIBb8lZ9mhZBGV6BJS-5" target="mAXIBb8lZ9mhZBGV6BJS-2">
          <mxGeometry relative="1" as="geometry" />
        </mxCell>
        <mxCell id="mAXIBb8lZ9mhZBGV6BJS-5" value="добавляем новую ячейку которая содержит ссылки" style="rounded=0;whiteSpace=wrap;html=1;" vertex="1" parent="1">
          <mxGeometry x="90" y="40" width="120" height="60" as="geometry" />
        </mxCell>
        <mxCell id="mAXIBb8lZ9mhZBGV6BJS-9" value="нет" style="text;html=1;align=center;verticalAlign=middle;resizable=0;points=[];autosize=1;strokeColor=none;fillColor=none;" vertex="1" parent="1">
          <mxGeometry x="260" y="168" width="40" height="30" as="geometry" />
        </mxCell>
        <mxCell id="mAXIBb8lZ9mhZBGV6BJS-11" value="да" style="text;html=1;align=center;verticalAlign=middle;resizable=0;points=[];autosize=1;strokeColor=none;fillColor=none;" vertex="1" parent="1">
          <mxGeometry x="140" y="258" width="40" height="30" as="geometry" />
        </mxCell>
      </root>
    </mxGraphModel>
  </diagram>
</mxfile>
